<svg xmlns="http://www.w3.org/2000/svg" xmlns:xlink="http://www.w3.org/1999/xlink" id="Layer_1" x="0" y="0" version="1.1" viewBox="0 0 122.9 83.9" style="enable-background:new 0 0 122.9 83.9" xml:space="preserve"><style type="text/css">.st0{fill:url(#SVGID_1_)}</style><g><linearGradient id="SVGID_1_" x1="105.683" x2="37.888" y1="91.127" y2="23.332" gradientUnits="userSpaceOnUse"><stop offset="0" style="stop-color:#00a3ff"/><stop offset="1" style="stop-color:#00fff0"/></linearGradient><path d="M76.4,0c10.1,0,19.3,4.1,25.9,10.7c6.6,6.6,10.7,15.8,10.7,25.9c0,7.4-2.2,14.3-6,20l15.8,17.3l-10.9,10 L96.7,67.1c-5.8,3.9-12.8,6.1-20.3,6.1c-8.3,0-16-2.8-22.2-7.5c-3.8,3.9-7.5,7.6-10.6,10.6l-21.2-21L7.4,69.9L0,62.5l0,0l22.5-21.9 c7,7,14,14,21,21l3.3-3.3c-4.4-6.1-7-13.5-7-21.6c0-10.1,4.1-19.3,10.7-25.9C57.1,4.1,66.3,0,76.4,0L76.4,0z M52.4,52.6l14.6-14.8 l-8.7-8.7l24.5-0.2v24.7l-8.4-8.4c-4.2,4.2-9.5,9.6-14.8,15c4.7,3.5,10.6,5.5,16.9,5.5c7.9,0,15.1-3.2,20.3-8.4 c5.2-5.2,8.4-12.4,8.4-20.3s-3.2-15.1-8.4-20.3l0,0c-5.2-5.2-12.4-8.4-20.3-8.4s-15.1,3.2-20.3,8.4c-5.2,5.2-8.4,12.4-8.4,20.3 C47.8,42.8,49.5,48.1,52.4,52.6L52.4,52.6z" class="st0"/></g></svg>