<?xml version="1.0" encoding="utf-8"?>
<!-- Generator: Adobe Illustrator 25.4.1, SVG Export Plug-In . SVG Version: 6.00 Build 0)  -->
<svg version="1.1" id="Layer_1" xmlns="http://www.w3.org/2000/svg" xmlns:xlink="http://www.w3.org/1999/xlink" x="0px" y="0px"
	 viewBox="0 0 45 45" width="55" height="55" style="enable-background:new 0 0 55 55;" xml:space="preserve">
<style type="text/css">
	.st0{fill:#FFFFFF;}
	.st1{opacity:7.000000e-02;enable-background:new    ;}
	.st2{fill:#00B4D8;}
</style>
<path class="st0" d="M22.5,3.8c-10.4,0-18.8,8.4-18.8,18.8c0,8.3,5.4,15.4,13,17.8h11.6c7.5-2.4,13-9.5,13-17.8
	C41.2,12.1,32.9,3.8,22.5,3.8z"/>
<path class="st1" d="M28.9,40.1c-0.4,0-1.2-0.1-1.2-0.7v-5.4c0-1-0.3-2-0.9-2.9c5.5-0.9,8.1-3.8,8.1-9.2c0-2.1-0.6-3.9-1.9-5.5
	c0.1-0.3,0.2-0.7,0.3-1.1c0.2-1.2,0-2-0.2-2.6l0-0.1c-0.2-0.7-0.4-1.2-0.4-1.2l-0.1-0.3l-0.3,0c0,0-0.2,0-0.4,0
	c-0.4,0-0.9,0-1.4,0.2l-0.2,0.1c-0.7,0.2-1.3,0.4-2.2,1c-0.3,0.2-0.7,0.4-1,0.7c-1.4-0.4-3-0.6-4.6-0.6c-1.7,0-3.2,0.2-4.7,0.6
	c-0.4-0.2-0.7-0.5-1-0.7c-0.9-0.5-1.5-0.7-2.2-1l-0.2-0.1c-0.5-0.2-1-0.2-1.4-0.2c-0.3,0-0.4,0-0.4,0l-0.3,0l-0.1,0.3
	c0,0-0.2,0.5-0.4,1.2l0,0.1c-0.2,0.7-0.3,1.4-0.2,2.6c0.1,0.4,0.1,0.8,0.3,1.1c-1.2,1.5-1.9,3.3-1.9,5.4c0,5.3,2.6,8.3,8.1,9.2
	c-0.4,0.6-0.6,1.2-0.8,1.8c-0.3,0.1-0.6,0.2-0.8,0.2c-0.2,0-0.5,0.1-0.8,0.1c-0.6,0-1.3-0.1-1.6-0.3c-0.4-0.2-1-0.9-1.5-1.6
	c-0.3-0.5-1-1.3-1.7-1.6c-0.6-0.3-1.2-0.4-1.7-0.4c-0.1,0-0.2,0-0.3,0c-0.3,0.1-0.6,0.2-0.8,0.5c-0.1,0.2-0.1,0.5-0.1,0.7
	c0.2,0.4,0.8,0.8,1,0.9c0.3,0.2,0.9,0.7,1.2,1.2c0.2,0.4,0.3,0.7,0.5,1c0.1,0.2,0.2,0.4,0.3,0.7c0.3,0.7,1.3,1.4,1.8,1.7
	c0.7,0.4,2,0.5,2.7,0.6l0.1,0c0.3,0,0.8,0,1.4-0.1v3c0,0.7-0.9,0.8-1.2,0.8c0,0,0.5,0.2,0.5,0.2c1.8,0.6,3.8,0.9,5.8,0.9
	s4-0.3,5.8-0.9C28.3,40.3,28.9,40.1,28.9,40.1z"/>
<path class="st2" d="M34.4,21.9c0-2.2-0.7-4-2-5.4c0.1-0.3,0.3-0.7,0.3-1.2c0.2-1.2,0-1.9-0.2-2.6c-0.2-0.7-0.4-1.2-0.4-1.2
	s-0.9-0.1-1.6,0.2c-0.7,0.2-1.4,0.4-2.3,1c-0.4,0.3-0.9,0.5-1.2,0.8c-1.4-0.4-3-0.6-4.7-0.6c-1.7,0-3.3,0.2-4.8,0.6
	c-0.3-0.2-0.8-0.5-1.2-0.8c-0.9-0.5-1.5-0.7-2.3-1c-0.7-0.2-1.6-0.2-1.6-0.2s-0.2,0.5-0.4,1.2c-0.2,0.7-0.4,1.4-0.2,2.6
	c0.1,0.5,0.2,0.9,0.4,1.2c-1.2,1.4-1.9,3.2-1.9,5.3c0,5.6,3,8.2,8.6,8.8c-0.6,0.7-1.1,1.6-1.2,2.5c-0.4,0.2-0.8,0.3-1.2,0.4
	c-1,0.2-2.1,0-2.7-0.3c-0.5-0.3-1.2-1-1.6-1.7c-0.4-0.6-1-1.2-1.5-1.5c-0.7-0.3-1.3-0.4-1.7-0.4c-0.4,0.1-0.5,0.3-0.5,0.5
	c0.1,0.2,0.4,0.5,0.8,0.7c0.4,0.2,1,0.8,1.3,1.4c0.4,0.6,0.5,1,0.8,1.7c0.2,0.5,1,1.1,1.6,1.5c0.5,0.3,1.5,0.5,2.5,0.5
	c0.4,0,1.2-0.1,2-0.2v3.5c0,0.6-0.5,1.1-1.1,0.9c1.8,0.6,3.8,0.9,5.8,0.9c2,0,4-0.3,5.8-0.9c-0.6,0.1-1.1-0.4-1.1-1v-5.4
	c0-1.2-0.5-2.4-1.3-3.2C31.4,30.1,34.4,27.6,34.4,21.9z M10.5,30.7c-0.1-0.1-0.2-0.2-0.2-0.3c0-0.1,0.2-0.1,0.4,0
	c0.1,0.1,0.2,0.2,0.2,0.3C10.8,30.7,10.7,30.8,10.5,30.7z M11.7,31.4c-0.1,0.1-0.2,0.1-0.4-0.1c-0.1-0.1-0.2-0.3-0.1-0.4
	c0.1-0.1,0.2-0.1,0.4,0.1C11.7,31.1,11.7,31.3,11.7,31.4z M12.4,32.6c-0.1,0.1-0.3,0-0.4-0.1c-0.1-0.1-0.1-0.3,0-0.4
	c0.1-0.1,0.3,0,0.4,0.1C12.5,32.3,12.5,32.5,12.4,32.6z M13.4,33.4c-0.1,0.1-0.2,0.1-0.4,0s-0.2-0.3-0.2-0.4c0.1-0.1,0.2-0.1,0.4,0
	C13.4,33.2,13.5,33.3,13.4,33.4z M14.4,34.3c-0.2,0-0.3-0.1-0.3-0.3c0-0.1,0.2-0.2,0.4-0.2c0.2,0,0.3,0.1,0.3,0.3
	C14.7,34.2,14.6,34.3,14.4,34.3z M15.9,34.5c-0.2,0-0.4-0.1-0.4-0.3c0-0.1,0.2-0.2,0.4-0.2s0.4,0.1,0.4,0.3
	C16.3,34.4,16.1,34.5,15.9,34.5z M17.4,34.4c-0.2,0-0.4-0.1-0.4-0.3c0-0.1,0.2-0.3,0.4-0.3s0.4,0.1,0.4,0.3
	C17.8,34.3,17.6,34.4,17.4,34.4z"/>
</svg>
