<?xml version="1.0" encoding="utf-8"?>
<!-- Generator: Adobe Illustrator 25.4.1, SVG Export Plug-In . SVG Version: 6.00 Build 0)  -->
<svg version="1.1" id="Layer_1" xmlns="http://www.w3.org/2000/svg" xmlns:xlink="http://www.w3.org/1999/xlink" x="0px" y="0px"
	 viewBox="0 0 119.2 122.9" style="enable-background:new 0 0 119.2 122.9;" xml:space="preserve">
<style type="text/css">
	.st0{fill:url(#SVGID_1_);}
</style>
<g>
	<linearGradient id="SVGID_1_" gradientUnits="userSpaceOnUse" x1="97.8675" y1="100.3025" x2="19.8375" y2="22.2725">
		<stop  offset="5.327789e-09" style="stop-color:#00A3FF"/>
		<stop  offset="1" style="stop-color:#00FFF0"/>
	</linearGradient>
	<path class="st0" d="M86.3,104.1c-0.5-0.2-1-0.3-1.5-0.3c-0.5,0-1.1,0.1-1.5,0.3c-0.5,0.2-0.9,0.5-1.2,0.8l0,0
		c-0.2,0.2-0.4,0.4-0.5,0.7c-0.1,0.1-0.2,0.3-0.2,0.4h-6.3v-5.5c-1,0.4-2,0.8-3,1c-0.2,0-0.3,0.1-0.5,0.1v6.1c0,0.5,0.2,0.9,0.5,1.2
		s0.8,0.5,1.2,0.5h8.1c0.1,0.1,0.1,0.2,0.2,0.4c0.1,0.2,0.3,0.4,0.5,0.6l0,0c0.4,0.4,0.8,0.7,1.3,0.9c0.5,0.2,1,0.3,1.5,0.3
		c0.5,0,1-0.1,1.5-0.3l0,0c0.5-0.2,0.9-0.5,1.3-0.9c0.4-0.4,0.7-0.8,0.9-1.3c0.2-0.5,0.3-1,0.3-1.5c0-0.5-0.1-1-0.3-1.5
		c-0.2-0.5-0.5-0.9-0.9-1.3C87.2,104.6,86.8,104.3,86.3,104.1L86.3,104.1z M57.4,66.6H50L49,70.1h-6.7l8-21.1h7.1l7.9,21.1h-6.8
		L57.4,66.6L57.4,66.6z M56,62l-2.3-7.6L51.4,62H56L56,62z M67.2,49h6.6v21.1h-6.6V49L67.2,49z M62.2,27.3c-1.1,0.8-2.1,1.8-3,3.2
		c0,0.1-0.1,0.1-0.2,0.2c-0.3,0.2-0.6,0.1-0.8-0.2c-0.9-1.4-1.9-2.4-3-3.2c-1.2-0.8-2.4-1.4-3.7-1.6h0c-1.3-0.3-2.5-0.3-3.8,0
		c-1.3,0.2-2.6,0.7-3.7,1.4c-1.1,0.7-2.2,1.5-3,2.5c-0.8,1-1.5,2-1.9,3.2l0,0c-0.1,0.2-0.1,0.4-0.2,0.6c0,0.2-0.1,0.4-0.2,0.6
		c0,0.3-0.3,0.5-0.5,0.5c-1.3,0.2-2.7,0.7-3.9,1.4c-1.3,0.8-2.4,1.8-3.4,3c-1,1.2-1.8,2.7-2.4,4.3c-0.6,1.5-0.9,3.2-1,4.9
		c0,0.2,0,0.5,0,0.7c0,0.2,0,0.4,0,0.7c0,0.2-0.1,0.4-0.2,0.5c-0.8,0.6-1.6,1.2-2.2,1.8c-0.7,0.7-1.3,1.3-1.8,2
		c-0.8,1.1-1.4,2.3-1.9,3.5c-0.4,1.2-0.6,2.5-0.7,3.8c0,1.2,0.1,2.4,0.5,3.5c0.3,1.2,0.9,2.3,1.5,3.4l0,0c0.4,0.6,0.8,1.2,1.3,1.8
		c0.5,0.6,1,1.1,1.6,1.6c0.1,0.1,0.2,0.3,0.2,0.5c-0.2,0.8-0.2,1.5-0.3,2.2c0,0.8,0,1.5,0.1,2.2c0.2,1.3,0.6,2.6,1.1,3.8
		c0.6,1.3,1.3,2.4,2.2,3.4c0.9,1,1.8,1.8,2.9,2.6c1.1,0.7,2.2,1.3,3.3,1.7c0.5,0.2,1,0.3,1.6,0.4c0.5,0.1,1,0.2,1.5,0.2
		c0.3,0,0.5,0.2,0.6,0.5c0.3,1.2,0.7,2.3,1.4,3.3c0.7,1.1,1.6,2,2.6,2.8c1.3,1,2.7,1.7,4.3,2.1c1.5,0.4,3,0.4,4.5,0.1
		c1.4-0.3,2.7-0.9,3.9-1.8c1.1-0.8,2.2-2,3-3.5c0-0.1,0.1-0.2,0.2-0.2c0.3-0.2,0.6,0,0.8,0.2c0.7,1.3,1.6,2.4,2.6,3.2
		c1.1,0.9,2.2,1.5,3.5,1.8c1.6,0.4,3.2,0.4,4.8,0.1c1.7-0.3,3.3-1.1,4.8-2.1c1.1-0.8,2.1-1.8,2.9-2.9c0.7-1,1.3-2.2,1.6-3.4
		c0-0.2,0.2-0.4,0.5-0.5c1.5-0.3,2.9-0.9,4.2-1.8c1.3-0.9,2.5-2.1,3.5-3.5c0.9-1.3,1.6-2.8,2.1-4.5c0.4-1.6,0.7-3.2,0.6-5
		c0-0.2,0.1-0.4,0.2-0.5c0.9-0.6,1.6-1.2,2.3-1.8c0.7-0.7,1.3-1.3,1.8-2.1l0,0c0.8-1.1,1.4-2.2,1.8-3.3c0.4-1.2,0.6-2.4,0.7-3.6
		c0-1.2-0.1-2.3-0.4-3.5c-0.3-1.2-0.8-2.3-1.4-3.3l0,0c-0.4-0.7-0.9-1.3-1.4-2c-0.5-0.6-1.1-1.2-1.7-1.8c-0.2-0.1-0.2-0.3-0.2-0.5
		c0.1-0.7,0.2-1.4,0.3-2.1c0-0.7,0-1.4-0.1-2c-0.2-1.4-0.5-2.7-1.1-3.9c-0.6-1.3-1.3-2.5-2.2-3.5c-0.9-1-1.8-1.9-2.9-2.7
		c-1.1-0.7-2.2-1.3-3.3-1.7l0,0c-0.6-0.2-1.2-0.4-1.8-0.5h0c-0.6-0.1-1.2-0.1-1.8-0.1c-0.3,0-0.5-0.2-0.6-0.4
		c-0.1-0.4-0.2-0.8-0.4-1.2c-0.2-0.4-0.3-0.8-0.6-1.2c-0.5-1-1.2-1.9-2.1-2.7c-0.8-0.8-1.8-1.5-2.9-2c-1.1-0.5-2.2-0.9-3.4-1.1
		c-1.1-0.2-2.3-0.1-3.5,0.1C64.6,25.9,63.3,26.5,62.2,27.3L62.2,27.3z M78.5,38.6c0.1-0.2,0.3-0.4,0.5-0.4c0.4,0,0.8,0,1.3,0.1
		c0.4,0.1,0.9,0.2,1.3,0.3c0.8,0.3,1.7,0.7,2.4,1.2c0.8,0.5,1.5,1.2,2.1,1.9l0,0c0.7,0.8,1.2,1.6,1.6,2.6c0.4,0.9,0.7,1.8,0.8,2.8
		c0.1,0.7,0.1,1.3,0,2c-0.1,0.7-0.2,1.3-0.4,2l0,0c-0.1,0.4-0.1,0.9,0,1.2c0.1,0.4,0.4,0.8,0.8,1l0,0c0.7,0.5,1.3,1.1,1.9,1.7
		c0.6,0.6,1,1.3,1.4,2c0.4,0.8,0.8,1.5,1,2.3c0.2,0.8,0.3,1.6,0.3,2.4c0,0.8-0.2,1.6-0.5,2.5c-0.3,0.8-0.7,1.5-1.2,2.3l0,0
		c-0.5,0.7-1.1,1.3-1.8,2c-0.7,0.6-1.5,1.2-2.4,1.7l0,0c-0.4,0.2-0.6,0.5-0.8,0.9s-0.2,0.8-0.1,1.2l0,0.1c0.2,1.5,0.1,3-0.2,4.3
		c-0.3,1.4-0.9,2.8-1.7,3.9c-0.6,0.8-1.3,1.6-2,2.2c-0.8,0.6-1.6,1-2.4,1.3h0c-0.3,0.1-0.6-0.1-0.7-0.4c-1.1-3.7-3.1-4.9-6.4-6.6
		l-0.1,0c-0.5-0.2-1-0.2-1.4-0.1c-0.4,0.1-0.8,0.4-1.1,0.9l0,0.1c-0.2,0.5-0.2,1-0.1,1.4c0.2,0.4,0.5,0.8,0.9,1.1
		c2.8,1.4,4.8,2.5,4.8,5.9c0,1-0.3,2-0.9,2.9c-0.6,0.9-1.4,1.8-2.3,2.5c-1,0.7-2.1,1.2-3.2,1.5c-1.1,0.2-2.2,0.3-3.2,0
		c-1.7-0.5-2.9-1.6-3.6-3.1c-0.7-1.3-1.1-2.9-1.4-4.3c0-0.1,0-0.1,0-0.2c0-0.7-0.6-1.2-1.3-1.4c-0.3-0.1-0.7-0.1-1-0.1
		c-0.3,0-0.7,0.1-1,0.1c-0.7,0.2-1.3,0.7-1.3,1.4c0,0.1,0,0.1,0,0.1c-0.6,2.2-1.4,3.9-2.3,5.1c-1.1,1.4-2.4,2.2-3.8,2.5
		c-1,0.2-2,0.2-3-0.1c-1-0.3-2-0.8-2.8-1.4c-0.8-0.7-1.5-1.4-2-2.3c-0.5-0.8-0.7-1.8-0.7-2.8c0-3.6,2.2-4.9,5.1-6.3
		c0.5-0.2,0.8-0.6,0.9-1.1c0.2-0.5,0.1-1-0.1-1.4c-0.2-0.5-0.6-0.8-1.1-0.9c-0.5-0.1-1-0.1-1.4,0.1l0,0c-3.4,1.8-5.5,3-6.7,6.8
		c-0.1,0.2-0.3,0.4-0.6,0.4c-0.3,0-0.7-0.1-1-0.1c-0.3-0.1-0.7-0.2-1-0.3c-0.8-0.3-1.6-0.7-2.4-1.2c-0.8-0.5-1.5-1.1-2.1-1.9
		c-0.6-0.7-1.2-1.6-1.6-2.5c-0.4-0.8-0.7-1.8-0.8-2.7v0c-0.1-0.7-0.1-1.4,0-2.2c0.1-0.7,0.2-1.4,0.5-2.2l0,0c0.1-0.4,0.1-0.8,0-1.2
		l0,0c-0.1-0.4-0.4-0.8-0.8-1l0,0c-0.6-0.5-1.2-1-1.7-1.6c-0.5-0.6-1-1.2-1.4-1.8c-0.5-0.8-0.8-1.6-1.1-2.4
		c-0.2-0.8-0.4-1.6-0.3-2.5c0-0.8,0.2-1.7,0.5-2.6c0.3-0.8,0.7-1.6,1.3-2.4c0.5-0.7,1.1-1.3,1.8-2c0.7-0.6,1.5-1.2,2.4-1.7
		c0.3-0.2,0.6-0.5,0.7-0.8l0,0c0.2-0.3,0.2-0.7,0.2-1.1c0,0,0-0.1,0-0.1v0c0-0.3-0.1-0.7-0.1-1c0-0.4,0-0.7,0-1.1
		c0-1.3,0.3-2.5,0.7-3.7c0.4-1.2,1.1-2.3,1.8-3.2c0.6-0.8,1.3-1.4,2-1.9c0.7-0.5,1.5-0.8,2.3-1l0,0c0.3-0.1,0.6,0.1,0.7,0.4
		c0.6,2,1.4,3.2,2.9,4.6l0.1,0c0.4,0.3,0.8,0.5,1.3,0.5s0.9-0.2,1.3-0.6l0,0c0.3-0.4,0.5-0.8,0.5-1.3s-0.2-0.9-0.6-1.3
		c-1.2-1.1-1.5-1.8-1.8-2.9c-0.4-1.3-0.3-2.5,0.1-3.7c0.3-0.8,0.7-1.5,1.3-2.1c0.5-0.6,1.2-1.2,2-1.6l0,0c0.8-0.4,1.6-0.8,2.4-0.9
		c0.8-0.1,1.6-0.2,2.5,0c1.1,0.2,2.3,0.8,3.2,1.9c0.9,0.9,1.6,2.2,2.2,3.8l0,0c0.2,0.7,0.9,1,1.7,1.2c0.4,0.1,0.7,0.1,1.1,0.1h0
		c0.4,0,0.7-0.1,1.1-0.2c0.6-0.2,1.1-0.5,1.2-0.9v-0.2c0-1.2,0.7-2.4,1.6-3.4c1-1.1,2.4-2,3.6-2.2c0.7-0.1,1.5-0.2,2.2,0
		c0.8,0.1,1.5,0.4,2.2,0.7l0.1,0c0.7,0.4,1.4,0.8,1.9,1.4c0.6,0.5,1,1.2,1.4,1.8c0.6,1,0.8,2.2,0.7,3.5c-0.2,1.1-0.2,1.8-1.1,2.9
		l0,0c-0.3,0.4-0.5,0.9-0.4,1.4c0,0.5,0.2,0.9,0.6,1.2l0.1,0c0.4,0.3,0.9,0.5,1.3,0.4c0.5,0,0.9-0.2,1.2-0.6l0.1-0.1
		C77.8,40.8,78.1,40,78.5,38.6L78.5,38.6z M100.5,87.5c-0.2-0.5-0.3-1-0.3-1.5c0-0.5,0.1-1.1,0.3-1.5c0.2-0.5,0.5-0.9,0.8-1.2l0,0
		c0.2-0.2,0.4-0.4,0.7-0.5c0.1-0.1,0.3-0.2,0.4-0.2v-6.3h-7.8c0-0.4,0-0.8,0-1.2c0-0.2,0.1-0.5,0.3-0.6c0.8-0.6,1.5-1.1,2.2-1.7h7.1
		c0.5,0,0.9,0.2,1.2,0.5s0.5,0.8,0.5,1.2v8.1c0.1,0.1,0.2,0.1,0.4,0.2c0.2,0.1,0.4,0.3,0.6,0.5l0,0c0.4,0.4,0.7,0.8,0.9,1.3
		c0.2,0.5,0.3,1,0.3,1.5c0,0.5-0.1,1-0.3,1.5l0,0c-0.2,0.5-0.5,0.9-0.9,1.3c-0.4,0.4-0.8,0.7-1.3,0.9c-0.5,0.2-1,0.3-1.5,0.3
		c-0.5,0-1-0.1-1.5-0.3c-0.5-0.2-0.9-0.5-1.3-0.9C101,88.4,100.7,88,100.5,87.5L100.5,87.5z M111.7,67.3h-10.6
		c0.2-0.4,0.3-0.8,0.5-1.2c0.3-0.8,0.5-1.6,0.6-2.4h9.5c0.1-0.1,0.1-0.3,0.2-0.4c0.2-0.2,0.3-0.5,0.5-0.7c0.4-0.4,0.8-0.7,1.3-0.9
		c0.5-0.2,1-0.3,1.5-0.3c0.5,0,1,0.1,1.5,0.3l0,0c0.5,0.2,0.9,0.5,1.3,0.9c0.4,0.4,0.7,0.8,0.9,1.3c0.2,0.5,0.3,1,0.3,1.5
		c0,0.5-0.1,1-0.3,1.5c-0.2,0.5-0.5,0.9-0.9,1.3s-0.8,0.7-1.3,0.9c-0.5,0.2-1,0.3-1.5,0.3c-0.5,0-1-0.1-1.5-0.3l0,0
		c-0.5-0.2-0.9-0.5-1.3-0.9c-0.2-0.2-0.4-0.4-0.5-0.6l0,0C111.9,67.5,111.8,67.4,111.7,67.3L111.7,67.3z M115.1,57.6h-13.3
		c-0.3-1.1-0.8-2.2-1.4-3.2l0,0c-0.1-0.1-0.1-0.2-0.2-0.3h13.1V42.5c-0.1-0.1-0.2-0.1-0.3-0.2c-0.2-0.1-0.4-0.3-0.6-0.5
		c-0.4-0.4-0.7-0.8-0.9-1.3c-0.2-0.5-0.3-1-0.3-1.5c0-0.5,0.1-1,0.3-1.5c0.2-0.5,0.5-0.9,0.9-1.3c0.4-0.4,0.8-0.7,1.3-0.9
		c0.5-0.2,1-0.3,1.5-0.3c0.5,0,1,0.1,1.5,0.3c0.5,0.2,0.9,0.5,1.3,0.9s0.7,0.8,0.9,1.3c0.2,0.5,0.3,1,0.3,1.5c0,0.5-0.1,1-0.3,1.5
		l0,0c-0.2,0.5-0.5,0.9-0.9,1.3c-0.2,0.2-0.5,0.4-0.8,0.6c-0.2,0.1-0.3,0.2-0.5,0.2v13.1c0,0.5-0.2,0.9-0.5,1.2
		C116,57.4,115.6,57.6,115.1,57.6L115.1,57.6z M101.2,49h-4.5c0.1-0.7,0.2-1.3,0.2-2c0-0.5,0-1,0-1.6h2.5v-5.2
		c-0.1-0.1-0.3-0.1-0.4-0.2c-0.2-0.2-0.5-0.3-0.7-0.5l0,0c-0.4-0.4-0.7-0.8-0.9-1.3c-0.2-0.5-0.3-1-0.3-1.5s0.1-1,0.3-1.5
		c0.2-0.5,0.5-0.9,0.8-1.3l0,0c0.4-0.4,0.8-0.7,1.3-0.9c0.5-0.2,1-0.3,1.5-0.3c0.5,0,1.1,0.1,1.5,0.3c0.5,0.2,0.9,0.5,1.3,0.8l0,0
		c0.4,0.4,0.7,0.8,0.8,1.3l0,0c0.2,0.5,0.3,1,0.3,1.5c0,0.5-0.1,1-0.3,1.5c-0.2,0.5-0.5,0.9-0.8,1.3l0,0c-0.2,0.2-0.4,0.4-0.6,0.5
		c-0.1,0.1-0.2,0.2-0.4,0.2v7c0,0.5-0.2,0.9-0.5,1.2C102.1,48.8,101.7,49,101.2,49L101.2,49z M31.1,18.8c0.5,0.2,1,0.3,1.5,0.3
		c0.5,0,1-0.1,1.5-0.3c0.5-0.2,0.9-0.5,1.2-0.8l0,0c0.2-0.2,0.4-0.4,0.5-0.7c0.1-0.1,0.2-0.3,0.2-0.4h6.3v5.4c1.1-0.6,2.3-1,3.5-1.3
		V15c0-0.5-0.2-0.9-0.5-1.2s-0.8-0.5-1.2-0.5h-8.1C36.1,13.1,36,13,36,12.9c-0.1-0.2-0.3-0.4-0.5-0.6l0,0c-0.4-0.4-0.8-0.7-1.3-0.9
		c-0.5-0.2-1-0.3-1.5-0.3c-0.5,0-1,0.1-1.5,0.3l0,0c-0.5,0.2-0.9,0.5-1.3,0.9c-0.4,0.4-0.7,0.8-0.9,1.3c-0.2,0.5-0.3,1-0.3,1.5
		c0,0.5,0.1,1,0.3,1.5c0.2,0.5,0.5,0.9,0.9,1.3C30.2,18.3,30.6,18.6,31.1,18.8L31.1,18.8z M51.4,7.5v13.7c1.2,0.3,2.3,0.9,3.4,1.7
		l0.1,0.1c0,0,0-0.1,0-0.1V7.5c0.1-0.1,0.3-0.1,0.4-0.2C55.6,7.2,55.8,7,56,6.8c0.4-0.4,0.7-0.8,0.9-1.3C57,5,57.1,4.5,57.1,4
		c0-0.5-0.1-1-0.3-1.5l0,0C56.6,2,56.3,1.5,56,1.2c-0.4-0.4-0.8-0.7-1.3-0.9c-0.5-0.2-1-0.3-1.5-0.3c-0.5,0-1,0.1-1.5,0.3
		c-0.5,0.2-0.9,0.5-1.3,0.9S49.7,2,49.5,2.5c-0.2,0.5-0.3,1-0.3,1.5c0,0.5,0.1,1,0.3,1.5l0,0C49.7,6,50,6.4,50.3,6.8
		C50.5,7,50.7,7.2,51,7.3l0,0C51.1,7.4,51.2,7.5,51.4,7.5L51.4,7.5z M61.1,4.2v20c0.5-0.5,1-0.9,1.5-1.3c0.7-0.5,1.3-0.9,2-1.2V5.9
		h11.6c0.1,0.1,0.1,0.2,0.2,0.3c0.1,0.2,0.3,0.4,0.5,0.6c0.4,0.4,0.8,0.7,1.3,0.9c0.5,0.2,1,0.3,1.5,0.3c0.5,0,1.1-0.1,1.5-0.3
		c0.5-0.2,0.9-0.5,1.3-0.9s0.7-0.8,0.9-1.3c0.2-0.5,0.3-1,0.3-1.5c0-0.5-0.1-1-0.3-1.5c-0.2-0.5-0.5-0.9-0.9-1.3
		c-0.4-0.4-0.8-0.7-1.3-0.9c-0.5-0.2-1-0.3-1.5-0.3c-0.5,0-1,0.1-1.5,0.3l0,0c-0.5,0.2-0.9,0.5-1.3,0.9c-0.2,0.2-0.4,0.5-0.6,0.8
		C76.1,2.1,76,2.2,76,2.4H62.8c-0.5,0-0.9,0.2-1.2,0.5C61.3,3.2,61.1,3.7,61.1,4.2L61.1,4.2z M69.6,18v2.7c0.4,0,0.7,0,1.1,0.1
		c0.8,0.1,1.7,0.3,2.4,0.6v-1.7h5.2c0.1,0.1,0.1,0.3,0.2,0.4c0.2,0.2,0.3,0.5,0.5,0.7l0,0c0.4,0.4,0.8,0.7,1.3,0.9
		c0.5,0.2,1,0.3,1.5,0.3s1-0.1,1.5-0.3c0.5-0.2,0.9-0.5,1.3-0.8l0,0c0.4-0.4,0.7-0.8,0.9-1.3c0.2-0.5,0.3-1,0.3-1.5s-0.1-1-0.3-1.5
		c-0.2-0.5-0.5-0.9-0.8-1.3l0,0c-0.4-0.4-0.8-0.6-1.3-0.9l0,0c-0.5-0.2-1-0.3-1.5-0.3c-0.5,0-1.1,0.1-1.5,0.3
		c-0.5,0.2-0.9,0.5-1.3,0.8l0,0c-0.2,0.2-0.4,0.4-0.5,0.6c-0.1,0.1-0.2,0.2-0.2,0.4h-7c-0.5,0-0.9,0.2-1.2,0.5
		C69.8,17.1,69.6,17.5,69.6,18L69.6,18z M18.8,35.2c0.2,0.5,0.3,1,0.3,1.5s-0.1,1-0.3,1.5c-0.2,0.5-0.5,0.9-0.8,1.2l0,0
		c-0.2,0.2-0.4,0.4-0.7,0.5c-0.1,0.1-0.3,0.2-0.4,0.2v6.3h6.6v0.3c0,0.2,0,0.5,0,0.8c0,0.2-0.1,0.4-0.3,0.6
		c-0.9,0.6-1.6,1.2-2.3,1.9h-5.7c-0.5,0-0.9-0.2-1.2-0.5s-0.5-0.8-0.5-1.2v-8.1c-0.1-0.1-0.2-0.1-0.4-0.2c-0.2-0.1-0.4-0.3-0.6-0.5
		l0,0c-0.4-0.4-0.7-0.8-0.9-1.3c-0.2-0.5-0.3-1-0.3-1.5c0-0.5,0.1-1,0.3-1.5l0,0c0.2-0.5,0.5-0.9,0.9-1.3c0.4-0.4,0.8-0.7,1.3-0.9
		c0.5-0.2,1-0.3,1.5-0.3c0.5,0,1,0.1,1.5,0.3c0.5,0.2,0.9,0.5,1.3,0.9C18.3,34.3,18.6,34.7,18.8,35.2L18.8,35.2z M7.5,55.5h9.4
		c-0.2,0.4-0.3,0.7-0.4,1.1c-0.3,0.8-0.5,1.6-0.6,2.4H7.5c-0.1,0.1-0.1,0.3-0.2,0.4C7.2,59.6,7,59.8,6.8,60
		c-0.4,0.4-0.8,0.7-1.3,0.9c-0.5,0.2-1,0.3-1.5,0.3c-0.5,0-1-0.1-1.5-0.3l0,0C2,60.7,1.5,60.4,1.2,60c-0.4-0.4-0.7-0.8-0.9-1.3
		c-0.2-0.5-0.3-1-0.3-1.5c0-0.5,0.1-1,0.3-1.5c0.2-0.5,0.5-0.9,0.9-1.3s0.8-0.7,1.3-0.9c0.5-0.2,1-0.3,1.5-0.3c0.5,0,1,0.1,1.5,0.3
		l0,0C6,53.7,6.4,54,6.8,54.4C7,54.6,7.2,54.8,7.3,55l0,0C7.4,55.2,7.5,55.3,7.5,55.5L7.5,55.5z M4.2,65.1h12.2
		c0.4,1.2,0.9,2.4,1.6,3.5v0l0,0H5.9v11.6c0.1,0.1,0.2,0.1,0.3,0.2c0.2,0.1,0.4,0.3,0.6,0.5c0.4,0.4,0.7,0.8,0.9,1.3
		c0.2,0.5,0.3,1,0.3,1.5c0,0.5-0.1,1.1-0.3,1.5c-0.2,0.5-0.5,0.9-0.9,1.3c-0.4,0.4-0.8,0.7-1.3,0.9c-0.5,0.2-1,0.3-1.5,0.3
		c-0.5,0-1-0.1-1.5-0.3c-0.5-0.2-0.9-0.5-1.3-0.9c-0.4-0.4-0.7-0.8-0.9-1.3c-0.2-0.5-0.3-1-0.3-1.5c0-0.5,0.1-1,0.3-1.5l0,0
		c0.2-0.5,0.5-0.9,0.9-1.3c0.2-0.2,0.5-0.4,0.8-0.6c0.1-0.1,0.3-0.2,0.5-0.2V66.9c0-0.5,0.2-0.9,0.5-1.2C3.2,65.3,3.7,65.1,4.2,65.1
		L4.2,65.1z M18,73.7h3.3c-0.1,0.7-0.2,1.3-0.2,1.9c0,0.5,0,1.1,0,1.6h-1.4v5.2c0.1,0.1,0.3,0.1,0.4,0.2c0.2,0.2,0.5,0.3,0.7,0.5
		l0,0c0.4,0.4,0.7,0.8,0.9,1.3c0.2,0.5,0.3,1,0.3,1.5s-0.1,1-0.3,1.5c-0.2,0.5-0.5,0.9-0.8,1.3l0,0c-0.4,0.4-0.8,0.7-1.3,0.9
		c-0.5,0.2-1,0.3-1.5,0.3s-1-0.1-1.5-0.3c-0.5-0.2-0.9-0.5-1.3-0.8l0,0c-0.4-0.4-0.6-0.8-0.9-1.3l0,0c-0.2-0.5-0.3-1-0.3-1.5
		c0-0.5,0.1-1.1,0.3-1.5c0.2-0.5,0.5-0.9,0.8-1.3l0,0c0.2-0.2,0.4-0.4,0.6-0.5c0.1-0.1,0.2-0.2,0.4-0.2v-7c0-0.5,0.2-0.9,0.5-1.2
		C17.1,73.9,17.5,73.7,18,73.7L18,73.7z M66,115.3v-14c-1.2-0.4-2.4-1-3.5-1.9l0,0v15.9c-0.1,0.1-0.3,0.1-0.4,0.2
		c-0.2,0.2-0.5,0.3-0.7,0.5c-0.4,0.4-0.7,0.8-0.9,1.3c-0.2,0.5-0.3,1-0.3,1.5c0,0.5,0.1,1,0.3,1.5l0,0c0.2,0.5,0.5,0.9,0.9,1.3
		c0.4,0.4,0.8,0.7,1.3,0.9c0.5,0.2,1,0.3,1.5,0.3c0.5,0,1-0.1,1.5-0.3c0.5-0.2,0.9-0.5,1.3-0.9s0.7-0.8,0.9-1.3
		c0.2-0.5,0.3-1,0.3-1.5c0-0.5-0.1-1-0.3-1.5l0,0c-0.2-0.5-0.5-0.9-0.9-1.3c-0.2-0.2-0.4-0.4-0.6-0.5l0,0
		C66.3,115.5,66.2,115.4,66,115.3L66,115.3z M56.3,118.7V98.6c-0.4,0.4-0.9,0.8-1.3,1.2c-0.7,0.5-1.5,1-2.2,1.3V117H41.3
		c-0.1-0.1-0.1-0.2-0.2-0.3c-0.1-0.2-0.3-0.4-0.5-0.6c-0.4-0.4-0.8-0.7-1.3-0.9c-0.5-0.2-1-0.3-1.5-0.3c-0.5,0-1,0.1-1.5,0.3
		c-0.5,0.2-0.9,0.5-1.3,0.9c-0.4,0.4-0.7,0.8-0.9,1.3c-0.2,0.5-0.3,1-0.3,1.5c0,0.5,0.1,1,0.3,1.5c0.2,0.5,0.5,0.9,0.9,1.3
		s0.8,0.7,1.3,0.9c0.5,0.2,1,0.3,1.5,0.3c0.5,0,1-0.1,1.5-0.3l0,0c0.5-0.2,0.9-0.5,1.3-0.9c0.2-0.2,0.4-0.5,0.6-0.8
		c0.1-0.2,0.2-0.3,0.2-0.5h13.1c0.5,0,0.9-0.2,1.2-0.5C56.2,119.6,56.3,119.2,56.3,118.7L56.3,118.7z M47.8,104.8v-2.9
		c-0.8,0-1.6-0.2-2.3-0.3c-0.4-0.1-0.8-0.2-1.2-0.4v1.9H39c-0.1-0.1-0.1-0.3-0.2-0.4c-0.2-0.2-0.3-0.5-0.5-0.7l0,0
		c-0.4-0.4-0.8-0.7-1.3-0.9c-0.5-0.2-1-0.3-1.5-0.3s-1,0.1-1.5,0.3c-0.5,0.2-0.9,0.5-1.3,0.8l0,0c-0.4,0.4-0.7,0.8-0.9,1.3
		c-0.2,0.5-0.3,1-0.3,1.5c0,0.5,0.1,1.1,0.3,1.5c0.2,0.5,0.5,0.9,0.8,1.3l0,0c0.4,0.4,0.8,0.7,1.3,0.8l0,0c0.5,0.2,1,0.3,1.5,0.3
		c0.5,0,1-0.1,1.5-0.3c0.5-0.2,0.9-0.5,1.3-0.8l0,0c0.2-0.2,0.4-0.4,0.5-0.6c0.1-0.1,0.2-0.2,0.2-0.4h7c0.5,0,0.9-0.2,1.2-0.5
		C47.6,105.8,47.8,105.3,47.8,104.8L47.8,104.8z"/>
</g>
</svg>
